<svg xmlns="http://www.w3.org/2000/svg" viewBox="-64 -64 128 128" role="img"><title>CSSX Loop X</title><path d="M25.861 0.000L25.896 -0.414L26.003 -0.822L26.179 -1.217L26.424 -1.594L26.736 -1.947L27.113 -2.270L27.552 -2.557L28.050 -2.803L28.604 -3.003L29.210 -3.151L29.863 -3.245L30.559 -3.279L31.293 -3.249L32.059 -3.153L32.853 -2.987L33.669 -2.748L34.500 -2.436L35.340 -2.047L36.184 -1.582L37.025 -1.039L37.857 -0.419L38.673 0.279L39.468 1.053L40.235 1.901L40.969 2.823L41.662 3.816L42.310 4.877L42.907 6.002L43.449 7.189L43.929 8.433L44.344 9.729L44.689 11.073L44.960 12.460L45.154 13.884L45.268 15.340L45.300 16.821L45.247 18.323L45.107 19.838L44.880 21.360L44.565 22.883L44.161 24.400L43.670 25.905L43.091 27.392L42.426 28.854L41.678 30.285L40.847 31.679L39.938 33.030L38.953 34.332L37.895 35.580L36.770 36.770L35.580 37.895L34.332 38.953L33.030 39.938L31.679 40.847L30.285 41.678L28.854 42.426L27.392 43.091L25.905 43.670L24.400 44.161L22.883 44.565L21.360 44.880L19.838 45.107L18.323 45.247L16.821 45.300L15.340 45.268L13.884 45.154L12.460 44.960L11.073 44.689L9.729 44.344L8.433 43.929L7.189 43.449L6.002 42.907L4.877 42.310L3.816 41.662L2.823 40.969L1.901 40.235L1.053 39.468L0.279 38.673L-0.419 37.857L-1.039 37.025L-1.582 36.184L-2.047 35.340L-2.436 34.500L-2.748 33.669L-2.987 32.853L-3.153 32.059L-3.249 31.293L-3.279 30.559L-3.245 29.863L-3.151 29.210L-3.003 28.604L-2.803 28.050L-2.557 27.552L-2.270 27.113L-1.947 26.736L-1.594 26.424L-1.217 26.179L-0.822 26.003L-0.414 25.896L-0.000 25.861L0.414 25.896L0.822 26.003L1.217 26.179L1.594 26.424L1.947 26.736L2.270 27.113L2.557 27.552L2.803 28.050L3.003 28.604L3.151 29.210L3.245 29.863L3.279 30.559L3.249 31.293L3.153 32.059L2.987 32.853L2.748 33.669L2.436 34.500L2.047 35.340L1.582 36.184L1.039 37.025L0.419 37.857L-0.279 38.673L-1.053 39.468L-1.901 40.235L-2.823 40.969L-3.816 41.662L-4.877 42.310L-6.002 42.907L-7.189 43.449L-8.433 43.929L-9.729 44.344L-11.073 44.689L-12.460 44.960L-13.884 45.154L-15.340 45.268L-16.821 45.300L-18.323 45.247L-19.838 45.107L-21.360 44.880L-22.883 44.565L-24.400 44.161L-25.905 43.670L-27.392 43.091L-28.854 42.426L-30.285 41.678L-31.679 40.847L-33.030 39.938L-34.332 38.953L-35.580 37.895L-36.770 36.770L-37.895 35.580L-38.953 34.332L-39.938 33.030L-40.847 31.679L-41.678 30.285L-42.426 28.854L-43.091 27.392L-43.670 25.905L-44.161 24.400L-44.565 22.883L-44.880 21.360L-45.107 19.838L-45.247 18.323L-45.300 16.821L-45.268 15.340L-45.154 13.884L-44.960 12.460L-44.689 11.073L-44.344 9.729L-43.929 8.433L-43.449 7.189L-42.907 6.002L-42.310 4.877L-41.662 3.816L-40.969 2.823L-40.235 1.901L-39.468 1.053L-38.673 0.279L-37.857 -0.419L-37.025 -1.039L-36.184 -1.582L-35.340 -2.047L-34.500 -2.436L-33.669 -2.748L-32.853 -2.987L-32.059 -3.153L-31.293 -3.249L-30.559 -3.279L-29.863 -3.245L-29.210 -3.151L-28.604 -3.003L-28.050 -2.803L-27.552 -2.557L-27.113 -2.270L-26.736 -1.947L-26.424 -1.594L-26.179 -1.217L-26.003 -0.822L-25.896 -0.414L-25.861 -0.000L-25.896 0.414L-26.003 0.822L-26.179 1.217L-26.424 1.594L-26.736 1.947L-27.113 2.270L-27.552 2.557L-28.050 2.803L-28.604 3.003L-29.210 3.151L-29.863 3.245L-30.559 3.279L-31.293 3.249L-32.059 3.153L-32.853 2.987L-33.669 2.748L-34.500 2.436L-35.340 2.047L-36.184 1.582L-37.025 1.039L-37.857 0.419L-38.673 -0.279L-39.468 -1.053L-40.235 -1.901L-40.969 -2.823L-41.662 -3.816L-42.310 -4.877L-42.907 -6.002L-43.449 -7.189L-43.929 -8.433L-44.344 -9.729L-44.689 -11.073L-44.960 -12.460L-45.154 -13.884L-45.268 -15.340L-45.300 -16.821L-45.247 -18.323L-45.107 -19.838L-44.880 -21.360L-44.565 -22.883L-44.161 -24.400L-43.670 -25.905L-43.091 -27.392L-42.426 -28.854L-41.678 -30.285L-40.847 -31.679L-39.938 -33.030L-38.953 -34.332L-37.895 -35.580L-36.770 -36.770L-35.580 -37.895L-34.332 -38.953L-33.030 -39.938L-31.679 -40.847L-30.285 -41.678L-28.854 -42.426L-27.392 -43.091L-25.905 -43.670L-24.400 -44.161L-22.883 -44.565L-21.360 -44.880L-19.838 -45.107L-18.323 -45.247L-16.821 -45.300L-15.340 -45.268L-13.884 -45.154L-12.460 -44.960L-11.073 -44.689L-9.729 -44.344L-8.433 -43.929L-7.189 -43.449L-6.002 -42.907L-4.877 -42.310L-3.816 -41.662L-2.823 -40.969L-1.901 -40.235L-1.053 -39.468L-0.279 -38.673L0.419 -37.857L1.039 -37.025L1.582 -36.184L2.047 -35.340L2.436 -34.500L2.748 -33.669L2.987 -32.853L3.153 -32.059L3.249 -31.293L3.279 -30.559L3.245 -29.863L3.151 -29.210L3.003 -28.604L2.803 -28.050L2.557 -27.552L2.270 -27.113L1.947 -26.736L1.594 -26.424L1.217 -26.179L0.822 -26.003L0.414 -25.896L0.000 -25.861L-0.414 -25.896L-0.822 -26.003L-1.217 -26.179L-1.594 -26.424L-1.947 -26.736L-2.270 -27.113L-2.557 -27.552L-2.803 -28.050L-3.003 -28.604L-3.151 -29.210L-3.245 -29.863L-3.279 -30.559L-3.249 -31.293L-3.153 -32.059L-2.987 -32.853L-2.748 -33.669L-2.436 -34.500L-2.047 -35.340L-1.582 -36.184L-1.039 -37.025L-0.419 -37.857L0.279 -38.673L1.053 -39.468L1.901 -40.235L2.823 -40.969L3.816 -41.662L4.877 -42.310L6.002 -42.907L7.189 -43.449L8.433 -43.929L9.729 -44.344L11.073 -44.689L12.460 -44.960L13.884 -45.154L15.340 -45.268L16.821 -45.300L18.323 -45.247L19.838 -45.107L21.360 -44.880L22.883 -44.565L24.400 -44.161L25.905 -43.670L27.392 -43.091L28.854 -42.426L30.285 -41.678L31.679 -40.847L33.030 -39.938L34.332 -38.953L35.580 -37.895L36.770 -36.770L37.895 -35.580L38.953 -34.332L39.938 -33.030L40.847 -31.679L41.678 -30.285L42.426 -28.854L43.091 -27.392L43.670 -25.905L44.161 -24.400L44.565 -22.883L44.880 -21.360L45.107 -19.838L45.247 -18.323L45.300 -16.821L45.268 -15.340L45.154 -13.884L44.960 -12.460L44.689 -11.073L44.344 -9.729L43.929 -8.433L43.449 -7.189L42.907 -6.002L42.310 -4.877L41.662 -3.816L40.969 -2.823L40.235 -1.901L39.468 -1.053L38.673 -0.279L37.857 0.419L37.025 1.039L36.184 1.582L35.340 2.047L34.500 2.436L33.669 2.748L32.853 2.987L32.059 3.153L31.293 3.249L30.559 3.279L29.863 3.245L29.210 3.151L28.604 3.003L28.050 2.803L27.552 2.557L27.113 2.270L26.736 1.947L26.424 1.594L26.179 1.217L26.003 0.822L25.896 0.414L25.861 0.000Z" fill="none" stroke="currentColor" stroke-width="4.2" stroke-linecap="round" stroke-linejoin="round"/></svg>
